<?xml version="1.0" standalone="no"?>
<!DOCTYPE svg PUBLIC "-//W3C//DTD SVG 20010904//EN"
 "http://www.w3.org/TR/2001/REC-SVG-20010904/DTD/svg10.dtd">
<svg version="1.0" xmlns="http://www.w3.org/2000/svg"
 width="360.000000pt" height="364.000000pt" viewBox="0 0 360.000000 364.000000"
 preserveAspectRatio="xMidYMid meet">

<g transform="translate(0.000000,364.000000) scale(0.100000,-0.100000)"
fill="#000000" stroke="none">
<path d="M1845 3453 c-80 -13 -219 -59 -299 -99 -284 -143 -471 -375 -557
-689 -19 -67 -23 -107 -23 -250 0 -147 3 -182 22 -255 28 -104 36 -123 89
-228 53 -103 89 -156 158 -231 30 -32 55 -63 55 -67 0 -5 -32 -27 -70 -49 -38
-22 -79 -52 -90 -67 -11 -16 -26 -28 -33 -28 -24 -1 -67 -44 -58 -59 7 -10 37
5 132 66 175 113 164 109 199 79 16 -13 56 -40 89 -60 l60 -37 -19 -44 c-10
-24 -14 -45 -9 -47 5 -2 3 -23 -7 -51 -16 -47 -12 -76 6 -47 7 11 10 6 10 -19
0 -80 -187 -587 -209 -565 -3 3 4 24 16 47 43 85 103 244 103 273 0 7 -8 10
-21 7 -16 -4 -17 -8 -7 -14 7 -5 9 -9 3 -9 -5 0 -16 4 -24 9 -14 9 -5 39 44
156 19 44 29 81 20 73 -5 -4 -21 -40 -37 -80 -16 -40 -45 -110 -65 -156 -19
-46 -33 -85 -31 -88 3 -2 13 16 23 41 11 25 23 45 27 45 4 0 8 -1 8 -2 -1 -15
-31 -83 -53 -120 -26 -43 -30 -46 -53 -38 -14 6 -45 10 -70 10 -25 0 -57 6
-72 14 -78 40 -460 49 -530 12 -18 -9 -32 -22 -29 -29 4 -12 49 -31 100 -42
16 -3 27 -11 24 -18 -2 -6 9 -22 25 -35 35 -30 35 -40 1 -45 -26 -4 -26 -4 5
-6 26 -1 35 -7 49 -36 16 -34 19 -35 72 -35 31 0 72 -4 91 -9 19 -5 51 -12 71
-15 34 -6 37 -10 49 -54 21 -83 27 -92 60 -92 16 0 30 -4 30 -10 0 -5 30 -9
68 -8 37 1 117 -2 177 -6 95 -7 118 -12 170 -39 33 -17 62 -34 65 -38 18 -23
103 -53 162 -57 74 -5 98 5 98 42 -1 19 -2 19 -24 -8 -21 -26 -27 -28 -65 -21
-23 4 -40 9 -37 13 3 3 0 12 -7 20 -10 13 -8 14 12 7 16 -5 21 -4 17 4 -4 6
-15 11 -25 11 -10 0 -27 10 -38 22 -22 24 -48 113 -38 129 4 5 0 16 -8 24 -13
12 -13 21 2 70 18 61 30 71 33 25 2 -52 3 -55 16 -63 7 -5 10 -13 6 -18 -11
-19 18 -39 58 -39 21 0 60 -11 86 -24 38 -19 75 -26 197 -36 83 -7 161 -11
175 -8 14 2 -36 9 -110 16 -195 18 -206 20 -207 40 -1 17 6 17 115 5 177 -18
201 -14 59 11 -21 4 -35 11 -32 15 2 5 -16 14 -40 21 -32 9 -45 18 -45 30 0
10 6 21 13 23 6 3 2 6 -10 6 -12 1 -25 5 -28 11 -3 6 1 7 9 4 19 -7 21 7 4 24
-9 9 -9 12 0 12 7 0 12 9 12 20 0 11 3 20 8 20 6 0 35 -33 54 -63 13 -21 18
-1 8 34 -19 65 -16 69 45 69 43 0 55 3 55 16 0 8 -4 12 -10 9 -5 -3 -10 -1
-10 4 0 6 5 11 10 11 6 0 10 10 10 23 0 17 -2 19 -10 7 -11 -18 -16 -13 -26
24 -6 25 -5 28 13 22 24 -8 34 10 27 48 -2 14 0 26 6 26 5 0 10 17 9 38 0 30
-2 33 -9 17 -7 -17 -9 -16 -9 11 -1 16 4 35 10 41 6 6 12 45 13 86 0 41 5 73
10 70 4 -3 7 29 5 72 l-4 78 100 27 c113 31 178 56 250 95 294 162 489 445
540 783 19 126 19 183 0 292 -62 368 -276 656 -599 806 -148 68 -233 86 -416
89 -91 2 -178 1 -195 -2z m91 -434 c19 -11 34 -23 34 -25 0 -3 -4 -3 -9 1 -5
3 -12 1 -16 -5 -3 -5 -1 -10 5 -10 6 0 16 -11 22 -25 6 -14 18 -25 25 -25 8 0
11 -4 8 -10 -4 -6 6 -10 22 -11 25 0 26 -1 8 -9 -17 -7 -16 -9 10 -10 30 -2
30 -2 5 -10 -23 -7 -23 -8 10 -10 33 -2 33 -3 10 -10 -23 -7 -23 -8 10 -10 33
-2 33 -3 10 -10 -23 -7 -23 -8 10 -10 l35 -2 -29 -7 c-28 -6 -29 -7 -12 -24
25 -24 17 -28 -28 -16 -63 17 -76 18 -76 6 0 -8 -3 -9 -8 -1 -6 9 -118 33
-237 51 -16 2 -43 8 -60 13 -16 5 -44 11 -61 13 -17 3 -41 10 -52 16 -11 6
-27 8 -35 5 -8 -3 -18 0 -23 7 -5 9 -2 10 9 6 10 -3 17 -2 17 2 0 5 10 7 22 3
15 -4 19 -2 13 7 -6 10 -2 11 15 6 17 -5 21 -4 15 6 -6 8 -4 11 7 7 8 -4 21 2
28 12 7 10 19 16 27 13 7 -3 13 0 13 7 0 7 7 10 15 6 8 -3 15 -2 15 3 0 12 39
21 46 10 3 -5 15 -9 27 -8 21 0 21 1 -3 11 -24 10 -24 10 -5 19 11 6 31 16 45
24 35 21 77 18 116 -6z m207 -216 c-7 -2 -21 -2 -30 0 -10 3 -4 5 12 5 17 0
24 -2 18 -5z m-113 -28 c11 -13 10 -14 -4 -9 -9 3 -16 10 -16 15 0 13 6 11 20
-6z m140 8 c0 -5 -11 -9 -25 -9 -14 -1 -25 2 -25 7 0 5 11 9 25 9 14 0 25 -3
25 -7z m-465 -165 c14 -6 25 -20 26 -32 0 -21 1 -21 9 -1 5 11 9 14 9 7 1 -7
5 -11 10 -8 5 4 11 1 13 -6 3 -8 18 -12 41 -10 28 3 37 0 37 -12 0 -8 6 -13
13 -11 6 2 24 -12 40 -32 24 -32 27 -45 27 -114 0 -43 5 -81 10 -84 6 -3 10
-15 10 -26 0 -30 -38 -24 -51 8 -8 21 -12 24 -19 13 -6 -10 -10 5 -12 45 -2
33 -8 60 -15 62 -15 5 -41 -52 -46 -102 -3 -30 -4 -26 -5 20 -1 33 -7 67 -12
75 -5 8 -10 11 -10 5 -4 -74 -2 -222 4 -262 l8 -53 28 15 c16 8 38 15 49 15
11 0 26 7 35 15 16 16 56 21 56 6 0 -5 -3 -11 -7 -14 -5 -2 -3 -2 4 -1 52 12
87 15 110 9 24 -7 17 -10 -52 -25 -44 -10 -69 -18 -55 -19 14 0 44 4 68 9 27
7 49 7 60 1 16 -9 16 -10 -1 -16 -9 -4 -27 -5 -40 -2 -12 3 -49 -1 -82 -8
l-60 -14 50 5 c28 3 58 7 68 10 9 3 17 1 17 -5 0 -5 -8 -12 -17 -14 -10 -3 -3
-5 15 -6 36 -1 45 -21 10 -21 -32 0 -68 -11 -68 -20 0 -5 19 -6 43 -3 31 3 38
2 27 -6 -8 -6 -29 -11 -45 -11 -17 0 -37 -6 -44 -12 -11 -10 -13 -10 -7 0 5 8
1 12 -11 11 -26 -1 -71 -17 -53 -18 8 -1 33 -4 54 -8 31 -5 37 -3 31 7 -6 10
-4 12 9 7 10 -4 23 -7 29 -7 6 0 3 -6 -8 -13 -16 -13 -15 -14 15 -15 47 -1 51
-12 4 -12 l-39 0 1 -112 c1 -109 1 -110 -5 -28 l-6 85 -8 -95 c-11 -127 -25
-234 -38 -296 -9 -42 -15 -51 -29 -47 -12 3 -20 -2 -25 -16 -3 -12 -12 -21
-20 -21 -7 0 -16 -11 -19 -25 -4 -14 -11 -25 -17 -25 -7 0 -8 7 -4 18 20 47
19 52 -15 52 -19 0 -39 -7 -47 -17 -13 -16 -14 -16 -9 9 5 23 3 26 -11 21 -9
-4 -14 -2 -11 3 2 5 14 30 26 57 24 51 33 60 26 25 l-5 -23 13 23 c8 17 17 22
32 18 12 -3 27 -6 34 -6 9 0 11 -7 7 -22 -5 -16 0 -13 14 10 25 39 26 46 6 38
-9 -3 -15 0 -15 9 0 8 -6 12 -13 9 -19 -7 -59 80 -44 95 13 13 -2 15 -22 2
-10 -6 -11 -13 -2 -29 13 -24 14 -42 4 -42 -5 0 -16 26 -27 58 -10 31 -24 60
-30 64 -6 4 -2 7 9 7 11 0 33 3 48 7 27 6 28 5 21 -22 l-6 -29 17 23 c14 19
16 40 12 132 -5 110 -3 115 31 111 6 -1 12 3 12 9 0 8 -11 9 -30 5 -30 -7 -30
-6 -31 39 -2 60 -2 63 -13 73 -5 5 -6 -9 -2 -32 3 -22 9 -83 11 -135 l6 -95
-20 40 c-10 22 -24 63 -29 90 -25 116 -56 242 -68 275 l-13 35 0 -55 c0 -30 4
-73 10 -95 6 -22 12 -51 14 -65 10 -68 18 -101 41 -169 24 -73 31 -120 17
-122 -5 0 -16 -2 -26 -4 -12 -2 -19 5 -23 23 -3 15 -9 34 -14 43 -5 10 -4 21
2 27 8 8 0 13 -29 18 -22 3 -45 9 -51 13 -16 9 -17 266 -2 359 14 85 8 104 -9
35 -7 -26 -17 -57 -21 -68 -8 -19 -9 -19 -9 -1 -1 14 -4 17 -12 9 -5 -5 -15
-84 -21 -174 -6 -90 -14 -168 -19 -173 -24 -27 12 306 44 407 14 42 21 79 17
82 -21 13 -87 -230 -110 -399 -6 -44 -11 -81 -13 -82 -1 -1 -14 -5 -28 -9
l-27 -7 19 69 c66 235 100 381 104 448 3 42 10 85 15 95 16 29 11 48 -5 20
l-14 -25 0 25 c-1 14 13 48 29 75 16 28 30 43 30 35 0 -11 2 -12 8 -3 8 12 48
31 69 32 7 1 24 -4 38 -11z m315 -107 c0 8 14 -1 30 -19 17 -18 29 -42 29 -55
-1 -20 -2 -20 -6 -2 -3 11 -10 25 -15 30 -7 7 -9 3 -5 -14 3 -13 1 -35 -5 -50
-6 -14 -10 -32 -9 -40 1 -7 -2 -10 -8 -6 -6 3 -11 15 -11 26 0 11 -9 38 -19
59 -21 45 -18 88 5 69 11 -9 14 -8 14 2z m108 -106 c-3 -3 -9 2 -12 12 -6 14
-5 15 5 6 7 -7 10 -15 7 -18z m-161 -32 c-3 -10 -5 -4 -5 12 0 17 2 24 5 18 2
-7 2 -21 0 -30z m118 -59 c6 -56 6 -58 -11 -39 l-17 20 8 -20 c4 -11 9 -29 10
-40 1 -11 0 -13 -2 -3 -2 9 -11 19 -18 22 -11 4 -13 -2 -10 -27 l5 -32 -11 34
c-14 44 -8 97 10 93 10 -2 12 4 7 22 -3 13 -3 32 0 41 11 27 22 -2 29 -71z
m66 36 c5 0 16 -17 24 -38 l15 -37 79 3 c116 6 123 -3 51 -61 -56 -46 -61 -48
-95 -38 -31 8 -35 7 -35 -9 0 -10 -4 -21 -9 -25 -11 -6 -30 54 -32 100 -1 17
-5 44 -10 60 -7 26 -8 25 -4 -10 5 -46 -3 -85 -17 -85 -6 0 -8 12 -5 28 3 15
1 50 -3 77 -8 53 -5 69 10 45 8 -12 10 -11 11 5 1 17 2 17 6 3 2 -10 9 -18 14
-18z m362 -25 c9 -13 13 -26 8 -29 -8 -5 -41 34 -41 49 0 12 16 3 33 -20z
m-663 -68 c0 -18 -5 -38 -12 -45 -9 -9 -8 -12 6 -12 9 0 26 5 37 10 15 8 19 7
19 -4 0 -7 7 -13 16 -12 9 0 19 -4 21 -11 3 -7 -3 -9 -16 -6 -11 3 -41 -2 -67
-11 -26 -9 -49 -16 -51 -16 -6 0 8 91 18 118 13 33 29 27 29 -11z m-53 -39
c-2 -13 -4 -5 -4 17 -1 22 1 32 4 23 2 -10 2 -28 0 -40z m775 18 c69 -37 88
-62 80 -104 l-5 -27 -8 28 c-10 38 -27 57 -50 57 -21 0 -26 -16 -6 -23 9 -4 9
-8 -2 -15 -9 -7 -10 -12 -2 -16 6 -4 11 -15 11 -24 0 -16 -33 28 -87 112 -20
32 -20 46 -2 46 4 0 36 -15 71 -34z m-140 -100 c23 15 78 22 78 10 0 -15 -188
-87 -196 -75 -9 15 -22 10 -29 -12 -6 -17 -9 -18 -16 -8 -11 19 7 37 51 49 27
7 40 17 44 33 3 13 16 37 28 53 l23 29 3 -43 c2 -27 7 -40 14 -36z m-237 -16
c3 -5 -3 -14 -14 -19 -15 -8 -20 -7 -23 7 -5 19 27 29 37 12z m-78 -96 c-3 -3
-12 -4 -19 -1 -8 3 -5 6 6 6 11 1 17 -2 13 -5z m253 -10 c0 -4 -10 -24 -22
-45 -25 -45 -57 -51 -109 -20 l-32 20 39 6 c21 3 55 15 74 25 37 21 50 24 50
14z m-310 -38 c0 -2 -7 -6 -15 -10 -8 -3 -15 -1 -15 4 0 6 7 10 15 10 8 0 15
-2 15 -4z m40 -36 c0 -5 -7 -7 -15 -4 -8 4 -15 8 -15 10 0 2 7 4 15 4 8 0 15
-4 15 -10z m-20 -32 c-1 -38 -30 -217 -39 -238 -11 -24 -11 -24 -6 6 3 16 6
78 7 137 0 98 2 107 19 107 11 0 19 -6 19 -12z m-63 -90 c-2 -18 -4 -4 -4 32
0 36 2 50 4 33 2 -18 2 -48 0 -65z m90 30 c-3 -8 -6 -5 -6 6 -1 11 2 17 5 13
3 -3 4 -12 1 -19z m-585 -28 c-4 -28 -22 -43 -22 -18 0 6 -3 8 -7 4 -5 -4 1
-14 11 -22 11 -8 15 -14 9 -14 -5 0 -18 9 -27 19 -14 15 -15 24 -6 40 6 12 19
21 29 21 14 0 17 -6 13 -30z m615 -42 c-3 -7 -5 -2 -5 12 0 14 2 19 5 13 2 -7
2 -19 0 -25z m-637 -30 c0 -5 -13 1 -30 14 -16 12 -30 26 -30 30 0 5 14 -1 30
-14 17 -12 30 -26 30 -30z m637 -40 c-3 -8 -6 -5 -6 6 -1 11 2 17 5 13 3 -3 4
-12 1 -19z m0 -85 c-2 -16 -4 -5 -4 22 0 28 2 40 4 28 2 -13 2 -35 0 -50z
m-390 0 c-3 -10 -5 -4 -5 12 0 17 2 24 5 18 2 -7 2 -21 0 -30z m57 -38 c3 -8
1 -15 -4 -15 -6 0 -10 7 -10 15 0 8 2 15 4 15 2 0 6 -7 10 -15z m373 -47 c-2
-13 -4 -5 -4 17 -1 22 1 32 4 23 2 -10 2 -28 0 -40z m-417 35 c0 -2 -7 -20
-16 -41 -15 -36 -16 -36 -30 -17 -13 18 -13 21 2 32 9 6 14 16 11 20 -3 5 3 9
14 9 10 0 19 -2 19 -3z m361 -59 c-9 -28 -9 -29 -10 -3 -1 14 2 29 6 32 11 12
13 2 4 -29z m-411 -44 c0 -5 -2 -10 -4 -10 -3 0 -8 5 -11 10 -3 6 -1 10 4 10
6 0 11 -4 11 -10z m176 -152 c-25 -93 -48 -202 -61 -288 -10 -65 -28 -88 -20
-25 3 28 8 65 10 83 2 18 7 37 10 42 3 6 2 10 -3 10 -9 0 -21 -39 -38 -130 -3
-19 -11 -41 -16 -47 -6 -7 -11 -52 -13 -100 -3 -124 -11 -150 -47 -158 -37 -9
-61 10 -38 28 20 16 50 71 50 92 0 13 -6 16 -26 12 -23 -4 -25 -2 -19 27 4 17
20 60 37 95 16 35 36 86 44 113 9 27 22 52 30 55 8 3 13 12 10 19 -4 10 3 14
19 14 36 0 31 17 -6 18 -17 0 -33 3 -36 5 -2 3 9 20 25 38 49 58 69 93 87 147
28 85 29 52 1 -50z m-95 50 c-12 -12 -21 -16 -21 -10 0 17 34 55 38 43 2 -6
-6 -20 -17 -33z m-81 -2 c0 -2 -7 -9 -15 -16 -13 -11 -14 -10 -9 4 5 14 24 23
24 12z m20 -141 c0 -23 -45 -127 -80 -182 -16 -26 -39 -66 -49 -88 -11 -22
-20 -35 -20 -29 -1 17 56 152 94 222 19 34 35 69 35 77 0 8 5 15 10 15 6 0 10
-7 10 -15z m-101 -19 c8 -10 6 -19 -9 -39 -22 -28 -26 -42 -9 -31 7 4 9 0 5
-12 -3 -11 -15 -50 -26 -87 -12 -37 -28 -71 -36 -74 -8 -3 -14 -12 -14 -20 0
-8 5 -11 10 -8 22 13 9 -14 -14 -28 -25 -17 -46 -81 -46 -141 0 -29 -4 -36
-20 -36 -16 0 -20 7 -20 35 0 19 4 43 9 53 4 9 15 44 24 77 18 72 54 174 66
189 4 6 11 25 15 41 10 40 36 95 46 95 4 0 13 -6 19 -14z m-149 -166 c-26 -80
-58 -189 -71 -243 -18 -74 -28 -97 -39 -94 -8 2 -13 10 -11 18 16 54 150 449
156 459 19 31 10 -8 -35 -140z m224 3 c-3 -27 -19 -88 -35 -137 -16 -49 -29
-105 -29 -125 0 -48 -20 -76 -47 -67 -26 8 -36 31 -24 54 5 9 24 55 42 102 38
102 90 220 96 220 2 0 1 -21 -3 -47z m316 -43 c0 -13 -11 -13 -30 0 -12 8 -11
10 8 10 12 0 22 -4 22 -10z m-4 -31 c3 -6 2 -15 -4 -21 -6 -6 -11 -2 -15 11
-5 22 7 29 19 10z m-669 -51 c-8 -24 -12 -28 -15 -15 -2 10 2 24 8 32 19 22
20 18 7 -17z m224 -35 c-12 -20 -14 -14 -5 12 4 9 9 14 11 11 3 -2 0 -13 -6
-23z m-249 -35 c-7 -7 -12 -8 -12 -2 0 14 12 26 19 19 2 -3 -1 -11 -7 -17z
m715 2 c-3 -11 -1 -23 4 -26 18 -10 9 -24 -16 -24 -30 0 -29 -1 -9 38 17 36
29 42 21 12z m-481 -16 c-4 -9 -9 -15 -11 -12 -3 3 -3 13 1 22 4 9 9 15 11 12
3 -3 3 -13 -1 -22z m-246 -19 c0 -19 -33 -78 -37 -67 -3 8 0 19 6 25 6 6 11
19 11 29 0 10 5 18 10 18 6 0 10 -2 10 -5z m220 -42 c-11 -17 -11 -17 -6 0 3
10 6 24 7 30 0 9 2 9 5 0 3 -7 0 -20 -6 -30z m363 -10 c14 -4 17 -17 17 -73 0
-37 -6 -81 -12 -97 l-13 -30 -88 33 c-49 18 -91 34 -93 37 -2 2 -1 18 2 35 6
27 11 32 35 32 26 0 29 4 30 33 0 17 3 26 6 20 8 -20 41 -15 53 8 8 14 17 18
28 14 9 -4 25 -10 35 -12z m-293 -73 c0 -12 -17 -12 -45 0 -17 7 -15 9 13 9
17 1 32 -3 32 -9z m344 -98 c2 -4 0 -14 -5 -22 -8 -13 -10 -13 -19 0 -5 8 -10
18 -10 23 0 10 28 9 34 -1z m-344 -140 c0 -14 -11 -21 -26 -15 -8 3 -11 9 -8
14 7 11 34 12 34 1z"/>
<path d="M1888 2953 c7 -3 16 -2 19 1 4 3 -2 6 -13 5 -11 0 -14 -3 -6 -6z"/>
<path d="M1970 2896 c0 -2 7 -9 15 -16 13 -11 14 -10 9 4 -5 14 -24 23 -24 12z"/>
<path d="M1712 2550 c0 -19 2 -27 5 -17 2 9 2 25 0 35 -3 9 -5 1 -5 -18z"/>
<path d="M1691 2534 c0 -11 3 -14 6 -6 3 7 2 16 -1 19 -3 4 -6 -2 -5 -13z"/>
<path d="M1742 2508 c-1 -14 -6 -28 -11 -30 -6 -2 -1 -37 9 -81 27 -111 28
-112 27 -18 0 47 -4 76 -8 65 -5 -13 -8 -1 -11 36 -2 30 -5 43 -6 28z"/>
<path d="M1810 2515 c0 -5 5 -17 10 -25 5 -8 10 -10 10 -5 0 6 -5 17 -10 25
-5 8 -10 11 -10 5z"/>
<path d="M1711 2400 c0 -25 4 -52 9 -60 7 -11 9 -8 9 15 -1 17 -5 44 -9 60 -7
27 -8 26 -9 -15z"/>
<path d="M1880 2390 c0 -22 3 -40 8 -40 4 0 6 18 4 40 -2 22 -6 40 -8 40 -2 0
-4 -18 -4 -40z"/>
<path d="M1860 2090 c-11 -7 -5 -8 20 -4 43 8 51 14 19 14 -13 0 -31 -5 -39
-10z"/>
<path d="M1878 2063 c7 -3 16 -2 19 1 4 3 -2 6 -13 5 -11 0 -14 -3 -6 -6z"/>
<path d="M1924 2028 c-5 -7 -2 -9 8 -5 9 3 21 0 27 -6 9 -9 11 -8 6 6 -8 19
-30 23 -41 5z"/>
<path d="M1888 2023 c7 -3 16 -2 19 1 4 3 -2 6 -13 5 -11 0 -14 -3 -6 -6z"/>
<path d="M1923 1943 c-3 -10 -12 -33 -20 -52 -7 -19 -11 -36 -8 -39 5 -5 26
41 39 86 9 26 -2 30 -11 5z"/>
<path d="M1839 1912 c-3 -20 -2 -29 4 -23 5 5 7 19 5 32 -3 20 -5 19 -9 -9z"/>
<path d="M1856 1753 c-6 -14 -5 -15 5 -6 7 7 10 15 7 18 -3 3 -9 -2 -12 -12z"/>
<path d="M1843 1682 c-14 -9 -3 -74 15 -80 15 -5 16 34 1 44 -6 3 -9 15 -6 25
6 22 6 21 -10 11z"/>
<path d="M1756 1485 c-9 -26 -7 -32 5 -12 6 10 9 21 6 23 -2 3 -7 -2 -11 -11z"/>
<path d="M1836 1463 c-6 -14 -5 -15 5 -6 7 7 10 15 7 18 -3 3 -9 -2 -12 -12z"/>
<path d="M2150 2325 c0 -5 5 -17 10 -25 5 -8 10 -10 10 -5 0 6 -5 17 -10 25
-5 8 -10 11 -10 5z"/>
<path d="M2171 2248 c0 -7 4 -22 9 -33 8 -18 9 -17 9 7 1 15 -3 30 -9 33 -5 3
-10 0 -9 -7z"/>
<path d="M1572 1057 c-14 -40 -15 -55 -3 -41 9 9 26 74 19 74 -2 0 -9 -15 -16
-33z"/>
<path d="M1441 1303 c-1 -6 -4 -20 -7 -30 -5 -17 -5 -17 6 0 6 10 9 23 6 30
-3 9 -5 9 -5 0z"/>
<path d="M1277 903 c-4 -3 -7 -11 -7 -17 0 -6 5 -5 12 2 6 6 9 14 7 17 -3 3
-9 2 -12 -2z"/>
<path d="M2247 499 c4 -13 8 -18 11 -10 2 7 -1 18 -6 23 -8 8 -9 4 -5 -13z"/>
<path d="M1814 379 c0 -20 11 -25 20 -10 3 5 0 13 -7 19 -10 8 -13 6 -13 -9z"/>
</g>
</svg>
