<?xml version="1.0" standalone="no"?>
<!DOCTYPE svg PUBLIC "-//W3C//DTD SVG 20010904//EN"
 "http://www.w3.org/TR/2001/REC-SVG-20010904/DTD/svg10.dtd">
<svg version="1.0" xmlns="http://www.w3.org/2000/svg"
 width="360.000000pt" height="415.000000pt" viewBox="0 0 360.000000 415.000000"
 preserveAspectRatio="xMidYMid meet">

<g transform="translate(0.000000,415.000000) scale(0.100000,-0.100000)"
fill="#000000" stroke="none">
<path d="M3031 4139 c-25 -5 -47 -12 -50 -17 -3 -4 -26 -16 -51 -27 -25 -11
-48 -23 -51 -28 -4 -5 -10 -4 -14 3 -8 13 11 30 34 30 8 0 12 3 8 6 -3 3 -22
0 -43 -6 -30 -10 -34 -14 -20 -22 22 -12 20 -31 -3 -23 -22 7 -127 -40 -111
-50 7 -4 17 -2 23 4 13 13 27 14 27 2 0 -5 -12 -16 -26 -26 -25 -16 -27 -16
-47 6 -20 21 -20 22 -1 37 17 13 17 14 1 8 -10 -3 -21 -6 -23 -6 -10 0 -2 -29
11 -40 24 -20 18 -32 -33 -70 -64 -48 -74 -49 -29 -3 20 21 37 44 37 51 0 17
-25 15 -40 -3 -15 -18 1 -20 18 -3 9 9 12 9 12 0 0 -6 -16 -22 -35 -34 -23
-15 -35 -30 -34 -43 3 -45 0 -48 -40 -42 -48 6 -70 -5 -53 -26 10 -12 8 -16
-10 -20 -35 -10 -40 2 -14 36 22 27 30 31 65 28 23 -1 41 2 41 7 0 20 -12 42
-21 37 -4 -3 -6 -12 -3 -20 4 -10 0 -12 -16 -8 -19 5 -19 8 -7 26 22 34 46 45
58 27 8 -12 9 -10 4 7 -4 15 0 25 12 32 10 6 13 11 8 11 -17 0 -114 -89 -145
-135 l-30 -43 29 -64 c44 -98 67 -237 55 -343 -9 -83 -9 -88 13 -113 13 -15
36 -52 51 -82 25 -51 27 -64 27 -180 0 -116 -2 -131 -29 -193 -15 -37 -32 -67
-36 -67 -4 0 -6 -26 -4 -57 4 -76 -13 -167 -43 -226 -34 -69 -38 -54 -5 23 24
58 27 77 26 175 0 63 -6 119 -12 130 -11 19 -11 19 -12 -3 0 -46 -43 -148 -83
-202 -23 -30 -41 -58 -40 -62 2 -4 -4 -5 -12 -1 -9 3 -23 -1 -33 -10 -27 -24
-134 -73 -172 -80 -27 -5 -17 3 45 35 44 22 96 53 116 69 20 16 44 29 53 29 9
0 16 5 16 11 0 6 11 24 24 40 13 15 32 49 41 74 15 39 16 50 5 73 -7 15 -13
41 -12 57 0 17 -2 22 -4 13 -3 -10 -9 -18 -14 -18 -5 0 -14 8 -19 18 -9 15
-10 15 -11 -5 0 -13 -4 -23 -9 -23 -15 0 -26 43 -12 48 8 3 8 9 0 24 -6 11
-17 17 -25 14 -18 -7 -54 10 -54 26 0 7 5 6 15 -2 8 -7 15 -9 15 -4 0 14 -97
74 -130 80 -15 4 -41 19 -56 35 -15 16 -36 29 -46 29 -10 0 -20 10 -24 25 -3
14 -10 25 -15 25 -5 0 -6 -7 -3 -15 10 -25 -61 -20 -85 6 -11 12 -31 27 -45
34 -25 13 -26 13 -26 -18 0 -18 7 -72 14 -121 13 -75 13 -92 1 -110 -7 -11
-21 -47 -30 -78 -9 -32 -21 -60 -26 -64 -12 -7 -5 27 27 123 21 66 22 75 10
111 -17 48 -20 165 -5 210 10 30 8 37 -14 60 -38 42 -79 108 -87 144 -8 32 -8
32 -9 5 -1 -33 -21 -75 -68 -141 -27 -37 -33 -54 -28 -74 10 -39 7 -154 -5
-221 -10 -56 -9 -64 15 -111 15 -30 32 -91 42 -151 14 -87 15 -102 2 -114 -12
-13 -15 -7 -17 43 -5 88 -20 151 -50 217 -21 43 -27 67 -21 87 12 45 21 165
14 187 -9 28 -27 26 -65 -5 -20 -17 -47 -28 -78 -32 -26 -3 -65 -16 -86 -30
-22 -14 -75 -43 -119 -65 -43 -22 -74 -42 -69 -46 6 -4 4 -11 -4 -19 -8 -7
-14 -8 -14 -3 0 6 -7 8 -15 5 -10 -4 -13 -13 -10 -25 4 -11 2 -19 -4 -19 -6 0
-11 5 -11 11 0 8 -4 8 -14 0 -7 -6 -11 -22 -8 -36 3 -17 -4 -32 -24 -53 -16
-16 -35 -31 -41 -33 -10 -3 -9 -17 5 -59 27 -87 100 -157 233 -225 60 -31 109
-60 109 -66 0 -20 -140 39 -213 90 -24 16 -46 29 -48 28 -2 -1 -3 0 -2 2 2 2
-12 23 -31 45 -38 48 -61 90 -87 160 -16 46 -18 48 -19 21 -9 -135 24 -275 85
-360 19 -28 30 -52 24 -54 -17 -5 -45 26 -78 88 -39 74 -61 159 -61 239 0 49
-5 73 -24 105 -53 90 -70 229 -41 340 15 57 49 121 77 145 13 10 15 36 11 150
l-4 137 39 110 c21 61 42 118 46 127 6 12 -8 33 -56 80 -63 63 -147 130 -119
94 16 -19 22 -56 11 -56 -12 0 -61 42 -56 48 3 2 12 -1 21 -8 9 -7 18 -10 21
-7 3 3 -6 13 -21 23 -20 13 -29 14 -38 5 -9 -10 -3 -20 31 -49 61 -53 52 -62
-10 -11 -29 24 -55 44 -57 46 -3 2 6 14 18 27 17 18 19 25 9 34 -30 24 -205
93 -233 91 -13 0 38 -23 62 -28 4 0 2 -6 -3 -11 -7 -7 -31 -1 -75 20 -53 25
-58 30 -29 25 26 -4 30 -3 15 4 -11 5 -47 9 -80 9 -33 0 -51 -2 -40 -5 44 -10
183 -69 230 -97 69 -41 184 -128 220 -165 l29 -32 -26 -77 c-49 -141 -60 -198
-57 -321 1 -98 -2 -123 -19 -163 -40 -91 -68 -218 -66 -296 3 -91 19 -168 45
-223 16 -31 18 -44 9 -49 -9 -5 -9 -9 -1 -14 6 -4 11 -4 11 1 0 4 18 -25 39
-64 37 -69 98 -154 131 -180 25 -20 6 -15 -62 17 -68 32 -129 43 -93 16 18
-13 12 -15 -53 -18 -55 -2 -71 0 -67 10 3 8 -5 12 -22 12 -26 0 -26 -1 -7 -15
18 -14 18 -14 -8 -15 -19 0 -28 5 -28 15 0 13 -7 15 -37 9 -21 -4 -41 -12 -45
-18 -4 -6 -8 -42 -8 -81 0 -49 3 -65 10 -55 8 13 10 13 10 -2 0 -9 -6 -19 -12
-21 -10 -4 -9 -8 2 -16 10 -7 11 -11 3 -11 -7 0 -13 -10 -13 -22 0 -19 2 -20
11 -8 8 12 9 10 7 -10 -2 -14 -9 -24 -16 -22 -7 1 -12 -9 -11 -25 0 -25 1 -26
9 -8 8 18 9 17 9 -7 1 -19 -4 -28 -14 -28 -12 0 -15 -12 -14 -52 1 -47 2 -49
8 -18 3 19 9 30 13 24 10 -15 12 -106 2 -128 -5 -14 -4 -17 5 -12 8 5 18 0 27
-13 21 -29 27 -27 52 18 12 21 29 44 37 51 8 7 12 16 9 21 -3 5 -2 8 3 7 4 -1
19 4 31 11 13 7 25 11 27 9 17 -16 -120 -232 -191 -302 -38 -38 -44 -48 -35
-64 15 -29 147 -126 221 -162 74 -37 75 -38 67 -46 -7 -7 -128 59 -216 119
l-65 43 -34 -70 c-18 -39 -31 -78 -29 -88 3 -10 0 -21 -6 -26 -7 -4 -32 -47
-57 -96 -43 -84 -104 -161 -160 -200 -14 -9 -19 -14 -13 -11 7 3 39 -14 70
-38 71 -54 294 -187 385 -230 80 -37 91 -56 15 -26 -73 29 -143 67 -287 158
l-125 79 -25 -32 c-56 -70 -119 -132 -188 -183 -40 -30 -80 -57 -87 -59 -35
-14 54 -133 190 -254 32 -28 49 -51 47 -62 -2 -13 3 -18 17 -18 12 0 24 0 28
-1 4 0 16 24 27 53 l20 53 8 -35 c5 -19 8 -60 8 -91 -1 -43 3 -58 15 -63 11
-4 14 -2 10 7 -4 6 3 1 15 -13 12 -14 19 -19 15 -12 -4 7 39 -10 95 -38 56
-29 99 -54 97 -57 -3 -2 -28 7 -56 21 -28 15 -51 24 -51 21 0 -12 101 -54 116
-48 12 4 15 3 10 -5 -4 -8 -2 -10 8 -6 17 6 59 -13 52 -25 -9 -13 190 -101
228 -101 32 1 35 15 20 80 -28 119 -55 337 -52 417 l3 78 58 29 c31 16 57 35
57 42 0 16 26 19 32 5 2 -6 32 -2 70 9 36 10 96 21 134 25 l67 8 -8 -84 c-14
-153 -13 -158 28 -194 20 -18 37 -34 37 -37 0 -3 -21 -3 -46 0 -44 5 -46 4
-35 -16 17 -32 95 -96 159 -130 70 -38 87 -41 72 -13 -12 24 -14 111 -2 111 5
0 17 -9 27 -21 11 -11 41 -36 67 -55 l49 -35 -6 53 c-5 45 -4 49 6 28 20 -45
27 -55 37 -53 5 1 8 -6 5 -16 -3 -10 1 -22 8 -27 9 -5 10 -2 6 10 -4 10 -3 15
3 11 6 -3 7 -17 4 -30 -3 -12 -1 -25 4 -29 5 -3 10 -40 11 -83 1 -42 4 -79 6
-83 2 -3 -5 -30 -15 -60 -12 -35 -19 -46 -20 -31 0 13 -3 22 -6 18 -3 -3 -3
-19 1 -36 l6 -31 29 22 c37 27 83 27 119 0 l29 -21 5 37 c4 20 12 102 18 182
11 141 12 146 43 180 17 19 39 46 49 60 15 21 19 23 28 10 10 -15 6 -80 -7
-113 -19 -51 110 10 196 93 l65 62 -33 9 c-17 5 -32 12 -32 16 0 3 16 23 36
45 28 31 35 46 31 67 -26 130 -30 161 -23 168 4 4 37 7 72 5 58 -2 64 -1 64
18 0 27 16 25 23 -2 5 -19 21 -27 94 -46 48 -13 103 -30 121 -39 l32 -15 -5
-122 c-7 -139 -29 -305 -52 -388 -13 -48 -13 -61 -3 -74 16 -18 32 -15 142 27
66 26 77 34 83 59 10 44 28 54 75 42 33 -8 47 -6 90 14 27 13 50 26 50 29 0 3
-18 -4 -41 -15 -23 -12 -43 -19 -46 -16 -3 3 14 14 38 24 24 11 82 46 129 77
47 32 108 74 135 92 28 19 71 55 98 81 26 25 47 41 47 35 0 -19 -82 -86 -210
-172 -69 -46 -129 -88 -135 -94 -15 -15 8 -1 105 63 186 122 273 200 353 312
59 84 66 101 40 96 -36 -6 -149 85 -254 203 l-62 70 32 32 c37 39 39 47 7 47
-31 0 -116 94 -151 166 -13 28 -31 57 -40 64 -8 7 -15 20 -15 30 0 9 -9 29
-20 43 -11 14 -20 35 -20 46 0 12 -7 24 -15 27 -8 4 -15 17 -15 29 0 13 -5 36
-10 51 -9 22 -7 29 10 41 22 16 28 56 7 47 -33 -12 -214 225 -242 317 l-7 24
27 -25 c15 -14 38 -44 51 -67 29 -49 44 -57 72 -37 37 26 46 102 33 292 -6 93
-14 184 -17 201 -8 38 -46 61 -101 61 -52 0 -81 9 -87 27 -3 7 -2 11 4 8 17
-10 33 38 35 107 2 67 -7 90 -26 71 -6 -6 -6 -26 0 -54 10 -46 4 -100 -9 -79
-5 8 -14 8 -35 0 -19 -7 -32 -7 -38 -1 -15 15 -9 105 8 138 8 16 15 39 15 53
0 14 5 41 10 60 32 115 11 357 -39 463 -25 53 -30 79 -36 177 -7 130 -17 193
-47 298 l-21 72 24 26 c78 84 299 223 403 256 106 33 115 46 17 27z m-2220
-87 c57 -25 64 -34 40 -56 -18 -17 -21 -17 -45 -1 -14 10 -26 22 -26 27 0 6
12 3 26 -7 25 -16 46 -13 28 5 -19 18 -103 49 -109 39 -4 -5 -11 -7 -16 -3 -6
4 -6 11 1 19 12 15 16 14 101 -23z m-46 -12 c3 -5 2 -10 -4 -10 -5 0 -13 5
-16 10 -3 6 -2 10 4 10 5 0 13 -4 16 -10z m2065 1 c0 -13 -28 -22 -35 -11 -3
4 1 11 7 13 20 8 28 8 28 -2z m-1790 -151 c0 -3 -9 -6 -19 -7 -13 -1 -18 3
-15 12 3 7 1 16 -4 19 -10 6 -23 -40 -14 -49 3 -2 22 -2 43 1 32 5 39 3 49
-17 10 -20 10 -22 -1 -11 -7 6 -32 12 -55 12 -51 0 -58 8 -49 61 l7 41 29 -28
c16 -15 29 -30 29 -34z m-23 -78 c-12 -2 -16 -9 -12 -22 5 -15 2 -17 -14 -13
-12 3 -19 8 -17 12 1 3 6 14 9 23 4 12 12 15 29 10 19 -5 20 -7 5 -10z m1567
-8 c11 -28 7 -33 -41 -40 l-47 -7 34 -28 c18 -16 31 -31 29 -34 -7 -6 -89 56
-89 67 0 4 17 10 38 14 52 9 75 23 40 24 -16 0 -28 5 -28 10 0 17 57 12 64 -6z
m-1592 -62 c-7 -2 -10 -14 -6 -30 l5 -27 -16 28 c-18 31 -12 49 12 40 11 -4
13 -8 5 -11z m1608 3 c0 -9 -11 -43 -25 -77 -14 -34 -25 -63 -25 -66 0 -2 11
-2 24 0 16 3 27 0 30 -9 9 -22 7 -33 -4 -33 -5 0 -10 7 -10 15 0 11 -8 13 -30
9 -37 -8 -37 -1 -5 70 29 63 31 76 10 76 -21 0 -19 18 3 23 30 8 32 7 32 -8z
m-1635 -111 c-19 -14 -33 -84 -16 -84 6 0 11 -5 11 -11 0 -14 -52 -7 -58 9 -2
6 4 12 13 12 15 0 17 6 11 40 -5 31 -3 40 8 40 21 0 28 17 17 38 -6 11 -7 23
-3 26 4 4 13 -7 20 -25 12 -29 12 -35 -3 -45z m1565 56 c14 -10 22 -21 19 -25
-4 -3 -20 5 -35 19 -34 30 -21 35 16 6z m75 -20 c-4 -18 -3 -30 4 -30 11 0 17
-16 27 -72 6 -37 5 -38 -22 -37 -19 1 -23 3 -10 6 15 4 17 12 13 46 -3 23 -13
47 -22 53 -13 10 -14 16 -4 38 16 35 22 33 14 -4z m-70 -20 c3 -5 -1 -10 -9
-10 -9 0 -16 5 -16 10 0 6 4 10 9 10 6 0 13 -4 16 -10z m-1568 -72 c-3 -7 -5
-2 -5 12 0 14 2 19 5 13 2 -7 2 -19 0 -25z m56 15 c-7 -2 -19 -2 -25 0 -7 3
-2 5 12 5 14 0 19 -2 13 -5z m3 -38 c3 -8 1 -27 -5 -42 -11 -27 -11 -26 -7 10
5 37 -7 51 -18 21 -3 -9 -6 -47 -6 -85 0 -62 -2 -69 -20 -69 -15 0 -20 6 -19
28 2 23 2 24 6 5 8 -43 22 -23 21 30 -1 69 10 117 28 117 8 0 17 -7 20 -15z
m1557 -37 c8 -41 11 -44 33 -40 23 4 24 2 24 -57 0 -47 -3 -61 -15 -62 -8 -1
-19 -3 -25 -4 -5 -1 -19 -3 -29 -4 -10 0 -22 -8 -25 -17 -5 -14 1 -16 51 -10
l58 5 -59 -14 c-33 -9 -61 -13 -63 -11 -9 9 10 165 19 159 6 -3 8 -26 5 -50
l-5 -44 37 3 c35 3 36 5 39 46 3 37 1 42 -17 42 -17 0 -21 -6 -20 -32 1 -24 3
-27 6 -10 6 30 23 28 23 -3 0 -20 -5 -25 -25 -25 -25 0 -25 1 -25 80 0 47 -4
80 -10 80 -5 0 -10 -15 -11 -32 l-1 -33 -8 35 c-6 24 -5 37 3 42 21 14 32 2
40 -44z m-1638 -8 c17 -7 15 -9 -12 -9 -18 -1 -33 4 -33 9 0 12 17 12 45 0z
m1695 -10 c0 -5 -9 -10 -20 -10 -11 0 -20 5 -20 10 0 6 9 10 20 10 11 0 20 -4
20 -10z m-1693 -31 c-14 -8 -16 -18 -11 -47 8 -41 18 -52 52 -52 20 0 22 5 23
53 2 49 2 48 13 -28 10 -75 10 -80 -8 -83 -10 -2 -23 1 -29 7 -7 7 -3 8 12 4
15 -4 21 -1 21 11 0 16 -21 24 -79 28 l-34 3 -1 58 c-1 57 -1 57 29 57 26 -1
27 -2 12 -11z m8 -139 c17 -7 15 -9 -12 -9 -18 -1 -33 4 -33 9 0 12 17 12 45
0z m1700 -30 c-3 -5 -12 -10 -18 -10 -7 0 -6 4 3 10 19 12 23 12 15 0z m15
-25 c0 -2 -10 -9 -22 -15 -22 -11 -22 -10 -4 4 21 17 26 19 26 11z m19 -79
c-9 -6 -18 -18 -22 -26 -4 -12 -6 -11 -6 3 -1 10 6 20 14 23 8 4 15 13 15 21
0 11 -7 14 -27 9 l-28 -6 25 14 c23 14 26 13 35 -6 7 -15 5 -23 -6 -32z
m-1832 -48 c-3 -7 -5 -2 -5 12 0 14 2 19 5 13 2 -7 2 -19 0 -25z m1862 -37 c7
-61 7 -61 -18 -60 -19 1 -21 3 -7 6 17 4 18 12 12 66 -3 33 -3 58 0 54 3 -3 9
-33 13 -66z m-35 4 c5 -22 4 -26 -4 -15 -5 8 -10 24 -10 34 0 26 6 18 14 -19z
m-34 21 c0 -3 -4 -8 -10 -11 -5 -3 -10 -1 -10 4 0 6 5 11 10 11 6 0 10 -2 10
-4z m-1803 -68 c-3 -7 -5 -2 -5 12 0 14 2 19 5 13 2 -7 2 -19 0 -25z m1800
-40 c-3 -7 -5 -2 -5 12 0 14 2 19 5 13 2 -7 2 -19 0 -25z m-1104 15 c-7 -2
-19 -2 -25 0 -7 3 -2 5 12 5 14 0 19 -2 13 -5z m1170 -20 c-7 -2 -19 -2 -25 0
-7 3 -2 5 12 5 14 0 19 -2 13 -5z m-1270 -37 c-10 -13 -20 -19 -22 -13 -2 5 4
16 15 24 26 19 27 16 7 -11z m141 9 c-4 -8 -11 -15 -16 -15 -6 0 -5 6 2 15 7
8 14 15 16 15 2 0 1 -7 -2 -15z m1093 -22 c-3 -10 -5 -4 -5 12 0 17 2 24 5 18
2 -7 2 -21 0 -30z m-27 -3 c0 -16 -4 -30 -8 -30 -5 0 -7 14 -4 30 2 17 6 30 8
30 2 0 4 -13 4 -30z m50 -15 c-31 -32 -38 -25 -8 8 13 14 25 24 27 21 2 -2 -6
-15 -19 -29z m-1167 -8 c-12 -12 -33 -46 -47 -74 -15 -29 -29 -53 -31 -53 -3
0 7 24 21 53 28 54 66 107 73 101 3 -2 -5 -14 -16 -27z m-147 -27 c-1 -27 -7
-55 -15 -62 -8 -7 -11 -8 -8 -2 4 7 -2 14 -13 17 -22 6 -24 47 -1 47 8 0 11 3
8 7 -6 5 20 43 28 43 2 0 2 -22 1 -50z m179 -5 c-4 -25 -10 -44 -12 -41 -3 3
-2 26 2 51 3 26 9 45 12 42 2 -3 1 -26 -2 -52z m-158 3 c-3 -8 -6 -5 -6 6 -1
11 2 17 5 13 3 -3 4 -12 1 -19z m776 7 c4 -8 1 -17 -5 -21 -7 -4 -6 -10 3 -16
11 -7 9 -8 -6 -6 -24 4 -35 58 -12 58 8 0 17 -7 20 -15z m547 11 c0 -3 -4 -8
-10 -11 -5 -3 -10 -1 -10 4 0 6 5 11 10 11 6 0 10 -2 10 -4z m-75 -26 c3 -5 2
-10 -4 -10 -5 0 -13 5 -16 10 -3 6 -2 10 4 10 5 0 13 -4 16 -10z m37 -12 c-7
-7 -12 -8 -12 -2 0 6 3 14 7 17 3 4 9 5 12 2 2 -3 -1 -11 -7 -17z m25 -20 c-3
-8 -6 -5 -6 6 -1 11 2 17 5 13 3 -3 4 -12 1 -19z m-37 -9 c20 -11 7 -11 -24 1
-23 8 -26 6 -36 -26 -11 -31 -10 -37 7 -50 17 -14 17 -14 -4 -4 -27 12 -26 11
-11 61 12 40 23 43 68 18z m-24 -35 c-3 -9 -6 -18 -6 -20 0 -2 -4 -4 -9 -4 -5
0 -7 9 -4 20 3 11 10 20 15 20 6 0 7 -7 4 -16z m38 0 c23 -9 20 -23 -4 -17
-11 3 -20 9 -20 14 0 11 3 11 24 3z m-1334 -60 c0 -13 -4 -26 -10 -29 -6 -4
-10 5 -10 20 0 24 -1 25 -16 11 -8 -9 -20 -14 -25 -10 -10 6 -5 19 20 47 15
17 16 17 28 1 7 -10 13 -28 13 -40z m-113 10 c-6 -20 -13 -32 -14 -27 -4 11
14 63 21 63 2 0 -1 -16 -7 -36z m993 22 c0 -2 -9 -6 -20 -9 -11 -3 -18 -1 -14
4 5 9 34 13 34 5z m-1332 -31 c-3 -3 -9 2 -12 12 -6 14 -5 15 5 6 7 -7 10 -15
7 -18z m1788 13 c5 -7 2 -9 -8 -5 -12 4 -19 -5 -29 -39 -15 -49 -17 -50 -45
-28 -19 15 -18 15 3 9 19 -5 33 11 38 45 1 11 17 30 25 30 5 0 12 -5 16 -12z
m-1702 -24 c9 -24 2 -26 -12 -4 -7 11 -8 20 -3 20 5 0 12 -7 15 -16z m1634 -9
c1 -1 -11 -2 -28 -1 -29 1 -36 6 -24 19 5 5 37 -6 52 -18z m-1307 -30 c10 7
13 -8 3 -18 -12 -12 -34 6 -34 27 1 19 2 19 11 3 6 -9 14 -15 20 -12z m-248
-5 c3 -11 1 -20 -4 -20 -5 0 -9 9 -9 20 0 11 2 20 4 20 2 0 6 -9 9 -20z m154
-12 c-3 -7 -5 -2 -5 12 0 14 2 19 5 13 2 -7 2 -19 0 -25z m413 -77 c0 -20 14
-61 35 -98 19 -35 35 -73 35 -84 0 -19 -1 -19 -19 -2 -10 10 -26 32 -35 48
-15 27 -16 27 -11 5 4 -14 10 -40 13 -59 4 -19 13 -36 21 -39 8 -3 11 0 8 5
-3 5 1 10 9 10 13 0 13 -3 -1 -16 -15 -15 -18 -14 -34 6 -31 37 -53 148 -45
221 7 67 24 69 24 3z m-556 37 c-3 -4 -9 -8 -15 -8 -5 0 -9 4 -9 8 0 5 7 9 15
9 8 0 12 -4 9 -9z m133 -30 c-3 -7 -5 -2 -5 12 0 14 2 19 5 13 2 -7 2 -19 0
-25z m730 -43 c-7 -77 -61 -176 -87 -160 -16 10 -12 25 14 59 33 44 66 111 66
136 0 11 3 20 6 20 4 0 4 -25 1 -55z m-163 -57 c-5 -10 -4 -10 5 -2 17 16 49
6 62 -18 8 -15 7 -24 -7 -39 -15 -16 -15 -23 -5 -46 12 -25 10 -29 -13 -48
-14 -11 -26 -26 -26 -33 0 -7 -4 -12 -9 -12 -5 0 -11 -9 -14 -19 -3 -14 -11
-18 -26 -14 -12 3 -21 1 -21 -6 0 -9 -6 -8 -22 1 -13 6 -38 11 -55 9 -33 -3
-42 10 -25 36 5 9 21 8 65 -2 33 -8 59 -9 63 -4 3 5 -4 9 -14 9 -11 0 -25 6
-31 14 -9 11 -7 15 11 20 13 4 18 9 12 12 -14 6 -7 136 9 146 20 13 49 10 41
-4z m836 -20 c11 -23 11 -23 -6 -3 -16 20 -16 20 -11 -3 3 -12 1 -20 -4 -16
-5 3 -9 1 -9 -4 0 -5 -11 -14 -25 -20 -25 -12 -25 -11 6 28 18 22 34 40 35 40
2 0 8 -10 14 -22z m-1653 -64 c-3 -3 -12 -4 -19 -1 -8 3 -5 6 6 6 11 1 17 -2
13 -5z m416 -51 c34 -24 41 -35 38 -55 -2 -12 6 -10 50 13 51 26 74 20 28 -7
-40 -24 -94 -40 -85 -25 3 5 -12 25 -34 45 -45 40 -67 48 -50 17 12 -23 13
-81 2 -99 -5 -7 -19 -10 -33 -8 -13 3 -30 5 -36 5 -7 1 -13 9 -14 19 0 10 -3
12 -6 5 -6 -17 -23 -17 -23 0 0 8 -7 14 -15 14 -9 0 -14 -6 -11 -14 6 -14 -6
-18 -17 -6 -15 14 -206 -3 -223 -20 -3 -3 6 -21 20 -41 13 -20 32 -58 42 -84
22 -59 51 -92 80 -92 31 0 64 37 64 72 0 33 -17 38 -22 6 -4 -32 -41 -35 -60
-6 -24 37 -28 62 -13 82 24 31 117 32 128 2 5 -12 1 -13 -24 -4 -38 13 -79
-11 -79 -47 0 -14 4 -25 9 -25 5 0 7 9 4 20 -8 29 41 50 64 27 21 -21 20 -79
-1 -112 -20 -30 -20 -35 -2 -35 7 0 19 -6 25 -14 13 -15 127 -46 282 -75 124
-24 272 -72 312 -102 l28 -21 82 41 c81 40 255 91 306 91 14 -1 -12 -11 -59
-24 -113 -30 -217 -70 -274 -107 l-48 -30 -45 30 c-67 45 -139 69 -318 108
-198 43 -252 59 -287 83 -15 11 -34 17 -43 14 -9 -4 -33 1 -55 11 -39 18 -75
70 -99 147 -7 21 -26 48 -42 62 -28 24 -37 38 -21 34 4 0 14 2 22 5 8 3 48 16
89 28 75 22 103 22 255 2 l49 -6 -6 32 c-4 18 -16 45 -27 61 -11 15 -20 31
-20 34 0 10 72 -23 113 -51z m162 27 c-28 -12 -67 -12 -60 0 3 6 23 10 43 9
30 0 33 -2 17 -9z m756 -26 c-22 -28 -29 -74 -11 -74 6 0 10 -8 10 -17 0 -11
3 -14 8 -8 11 16 130 40 192 39 75 -1 119 -10 158 -34 l33 -20 -30 -26 c-17
-14 -47 -59 -66 -100 -19 -41 -40 -74 -46 -74 -5 0 -7 -5 -3 -12 5 -8 2 -9 -9
-5 -10 3 -17 3 -17 -1 0 -4 -13 -8 -30 -8 -16 -1 -27 2 -24 7 3 5 -1 6 -9 3
-30 -11 -71 92 -47 121 17 20 60 19 76 -2 12 -16 12 -16 7 5 -7 27 -43 38 -73
22 -12 -6 -24 -9 -28 -6 -10 11 6 18 51 23 37 5 47 2 60 -17 29 -42 -13 -106
-47 -69 -8 9 -8 10 3 4 9 -5 12 -4 7 3 -14 23 -27 12 -24 -20 2 -25 9 -35 30
-42 44 -15 73 8 104 80 15 35 35 71 45 80 11 10 19 20 19 24 0 17 -64 33 -155
37 -86 4 -107 2 -153 -16 -29 -12 -54 -21 -56 -21 -11 0 -17 83 -7 93 26 26 8
27 -35 2 -28 -16 -45 -22 -42 -14 5 14 101 69 120 69 5 0 0 -12 -11 -26z
m-1466 -4 c3 -5 1 -10 -4 -10 -6 0 -11 5 -11 10 0 6 2 10 4 10 3 0 8 -4 11
-10z m1315 -56 l25 -15 -35 6 c-39 6 -66 25 -34 25 10 -1 30 -8 44 -16z m-240
-3 c0 -11 -16 -16 -74 -26 -28 -5 -37 -3 -34 6 2 7 17 14 33 16 16 3 32 6 34
9 8 8 41 4 41 -5z m-1165 -11 c3 -5 -3 -10 -15 -10 -12 0 -18 5 -15 10 3 6 10
10 15 10 5 0 12 -4 15 -10z m815 -19 c0 -14 -140 -131 -157 -131 -9 0 -14 2
-12 4 2 2 37 33 78 70 72 64 91 76 91 57z m-90 -22 c0 -6 -4 -7 -10 -4 -5 3
-10 11 -10 16 0 6 5 7 10 4 6 -3 10 -11 10 -16z m104 -51 c-30 -57 -66 -100
-77 -89 -6 6 7 30 39 70 26 33 50 58 52 56 2 -2 -4 -18 -14 -37z m526 35 c0
-5 18 -21 40 -37 50 -37 45 -45 -8 -15 -46 27 -72 59 -47 59 8 0 15 -3 15 -7z
m-686 -55 c-4 -6 -10 -5 -15 3 -14 22 -10 33 6 19 8 -7 12 -17 9 -22z m358
-18 c6 0 3 -8 -8 -18 -33 -30 -68 -52 -84 -52 -8 0 4 12 28 26 45 27 47 31 33
54 -6 8 -7 18 -4 24 4 5 10 0 14 -12 5 -12 14 -22 21 -22z m-542 9 c0 -6 -4
-7 -10 -4 -5 3 -10 11 -10 16 0 6 5 7 10 4 6 -3 10 -11 10 -16z m92 -9 c30
-27 31 -29 11 -30 -13 0 -30 12 -43 30 -27 38 -10 39 32 0z m299 -30 c-8 -38
-28 -66 -39 -55 -2 2 4 28 14 59 20 64 40 61 25 -4z m665 31 c-16 -16 -35 -27
-42 -24 -19 7 -18 8 19 32 46 29 55 26 23 -8z m-1531 10 c3 -5 1 -12 -5 -16
-5 -3 -10 1 -10 9 0 18 6 21 15 7z m1316 -32 c13 -26 17 -45 11 -51 -6 -6 -15
6 -26 32 -28 70 -18 83 15 19z m-50 -102 c-18 -18 -29 3 -28 48 l2 45 18 -41
c11 -27 14 -46 8 -52z m-532 35 c0 -24 -1 -25 -9 -7 -12 28 -12 47 0 40 6 -3
10 -18 9 -33z m-719 -16 c0 -1 -11 -15 -25 -30 -14 -15 -37 -51 -52 -79 -14
-29 -28 -47 -30 -42 -5 16 56 123 80 140 22 15 27 18 27 11z m695 -45 c-3 -12
-10 -21 -15 -21 -4 0 -3 11 3 24 14 29 22 27 12 -3z m43 4 c-3 -3 -9 2 -12 12
-6 14 -5 15 5 6 7 -7 10 -15 7 -18z m-628 -50 c-13 -14 -26 -23 -28 -20 -7 7
29 45 41 45 6 0 0 -11 -13 -25z m2134 -326 c-33 -36 -261 -189 -280 -189 -30
0 -20 18 21 38 56 27 237 146 255 167 7 8 17 15 23 15 6 0 -2 -14 -19 -31z
m-2419 -199 c-3 -5 -10 -29 -14 -52 -8 -41 -9 -41 -10 -10 -1 31 13 72 25 72
3 0 2 -4 -1 -10z m45 -3 c8 -7 22 -21 30 -32 8 -11 -1 -6 -20 10 -19 17 -37
31 -39 33 -2 1 0 2 5 2 5 0 16 -6 24 -13z m-86 -75 c3 -5 -8 -6 -25 -4 -31 5
-36 -6 -19 -39 6 -11 7 -19 1 -19 -11 0 -21 24 -21 51 0 14 7 19 29 19 17 0
32 -4 35 -8z m101 -110 c-6 -6 -55 30 -55 40 0 5 13 -1 29 -14 15 -13 27 -24
26 -26z m-98 32 c-3 -3 -12 -4 -19 -1 -8 3 -5 6 6 6 11 1 17 -2 13 -5z m-52
-16 c-11 -6 -30 -20 -42 -31 -13 -11 -23 -16 -23 -11 0 11 60 54 75 54 5 0 1
-6 -10 -12z m94 -55 c-40 -47 -42 -49 -34 -33 10 19 47 60 53 60 3 0 -5 -12
-19 -27z m-82 -29 c-3 -3 -12 -4 -19 -1 -8 3 -5 6 6 6 11 1 17 -2 13 -5z
m1653 -75 c0 -6 -4 -7 -10 -4 -5 3 -10 11 -10 16 0 6 5 7 10 4 6 -3 10 -11 10
-16z m-1717 -4 c-3 -9 -8 -14 -10 -11 -3 3 -2 9 2 15 9 16 15 13 8 -4z m1647
-45 c0 -33 -4 -60 -8 -60 -9 0 -32 101 -25 113 2 4 11 7 19 7 11 0 14 -14 14
-60z m-620 30 c0 -11 -4 -20 -10 -20 -5 0 -10 9 -10 20 0 11 5 20 10 20 6 0
10 -9 10 -20z m60 -15 c1 -11 2 -38 1 -60 -1 -30 -4 -36 -11 -25 -13 21 -24
96 -15 110 9 15 23 1 25 -25z m80 -31 c0 -32 -16 -30 -34 5 -15 27 -14 28 10
23 17 -3 24 -11 24 -28z m400 17 c0 -19 -26 -48 -36 -39 -7 8 14 58 26 58 5 0
10 -8 10 -19z m-308 -36 c-5 -39 -28 -47 -56 -19 -23 22 -4 54 32 54 26 0 28
-2 24 -35z m74 -11 c3 -41 2 -42 -24 -35 -30 8 -41 43 -21 67 22 26 42 12 45
-32z m78 20 c23 -23 20 -43 -10 -54 -41 -16 -47 -3 -28 58 5 16 19 15 38 -4z
m71 -4 c3 -11 11 -20 16 -20 6 0 7 -4 4 -10 -3 -5 -17 -10 -31 -10 -20 0 -24
5 -24 30 0 35 25 42 35 10z m1239 -3 c-5 -13 -55 -47 -70 -47 -6 0 66 59 73
60 1 0 0 -6 -3 -13z m-109 -80 c-62 -47 -264 -149 -278 -140 -14 8 3 19 60 37
29 10 92 42 140 71 90 55 132 72 78 32z m-1465 -212 c9 -11 9 -15 1 -15 -6 0
-14 7 -18 16 -4 11 -8 12 -13 4 -14 -23 -31 1 -24 33 10 50 16 52 29 13 7 -20
18 -43 25 -51z m446 29 c-3 -8 -10 -14 -15 -14 -5 0 -4 13 2 31 8 21 13 26 15
14 2 -9 1 -23 -2 -31z m-311 -34 c-3 -5 -12 -10 -18 -10 -7 0 -6 4 3 10 19 12
23 12 15 0z m-35 -14 c0 -2 -8 -10 -17 -17 -16 -13 -17 -12 -4 4 13 16 21 21
21 13z m-180 -204 c0 -4 -15 -16 -32 -27 -18 -10 -36 -23 -40 -29 -8 -12 -36
-17 -43 -6 -3 4 -15 6 -28 4 -12 -2 -16 -2 -9 2 6 3 10 10 7 14 -3 5 13 14 35
20 23 6 48 14 57 17 11 4 14 2 9 -5 -10 -17 3 -15 20 3 17 17 24 19 24 7z
m261 -229 c0 -10 2 -26 4 -36 2 -9 0 -15 -5 -12 -11 7 -18 65 -8 65 4 0 8 -8
9 -17z m1059 -72 c0 -4 -26 -20 -57 -34 -96 -42 -113 -41 -28 2 89 46 85 44
85 32z m-1997 -32 c37 -13 67 -27 67 -32 0 -11 -31 -1 -105 34 -66 32 -63 31
38 -2z"/>
<path d="M1795 2511 c19 -8 19 -8 -4 -16 -16 -5 -20 -10 -12 -18 7 -7 5 -14
-7 -23 -16 -13 -16 -13 1 -14 10 0 15 -4 12 -10 -3 -5 -2 -10 4 -10 5 0 8 15
7 34 -3 27 1 36 16 40 26 6 14 26 -15 25 -21 0 -21 -1 -2 -8z"/>
<path d="M2760 4060 c-8 -5 -10 -10 -5 -10 6 0 17 5 25 10 8 5 11 10 5 10 -5
0 -17 -5 -25 -10z"/>
<path d="M1780 3476 c0 -8 4 -17 9 -20 5 -4 7 3 4 14 -6 23 -13 26 -13 6z"/>
<path d="M1850 3335 c8 -11 27 -34 43 -52 18 -19 26 -36 22 -44 -6 -8 -4 -10
5 -4 9 6 10 2 5 -16 -15 -47 -15 -54 -1 -24 8 17 14 35 14 40 -1 6 -24 35 -51
65 -28 30 -45 46 -37 35z"/>
<path d="M2337 2930 c-3 -11 -2 -20 3 -20 4 0 10 9 13 20 3 11 2 20 -3 20 -4
0 -10 -9 -13 -20z"/>
<path d="M2800 2930 c0 -5 5 -10 11 -10 5 0 7 5 4 10 -3 6 -8 10 -11 10 -2 0
-4 -4 -4 -10z"/>
<path d="M1132 2849 c2 -7 -3 -13 -11 -14 -20 0 -26 -25 -7 -25 20 0 40 36 26
45 -6 4 -9 1 -8 -6z"/>
<path d="M2775 2840 c3 -5 8 -10 11 -10 2 0 4 5 4 10 0 6 -5 10 -11 10 -5 0
-7 -4 -4 -10z"/>
<path d="M715 2830 c3 -5 11 -10 16 -10 6 0 7 5 4 10 -3 6 -11 10 -16 10 -6 0
-7 -4 -4 -10z"/>
<path d="M711 2794 c0 -11 3 -14 6 -6 3 7 2 16 -1 19 -3 4 -6 -2 -5 -13z"/>
<path d="M749 2792 c-10 -4 -14 -13 -10 -24 5 -15 8 -13 18 7 6 14 10 25 10
24 -1 0 -9 -3 -18 -7z"/>
<path d="M790 2703 c0 -5 5 -15 11 -23 9 -13 10 -13 6 2 -3 9 -1 19 6 22 7 2
4 5 -5 5 -10 1 -18 -2 -18 -6z"/>
<path d="M787 2640 c-10 -13 -10 -13 5 -2 9 7 18 9 20 3 2 -6 11 -4 21 4 17
12 16 13 -8 11 -15 0 -32 -8 -38 -16z"/>
<path d="M602 2015 c0 -16 2 -22 5 -12 2 9 2 23 0 30 -3 6 -5 -1 -5 -18z"/>
<path d="M125 650 c21 -22 41 -40 44 -40 3 0 -13 18 -34 40 -21 22 -41 40 -44
40 -3 0 13 -18 34 -40z"/>
<path d="M210 567 c0 -2 15 -16 33 -33 l32 -29 -29 33 c-28 30 -36 37 -36 29z"/>
<path d="M460 386 c0 -3 9 -10 20 -16 11 -6 20 -8 20 -6 0 3 -9 10 -20 16 -11
6 -20 8 -20 6z"/>
<path d="M1731 114 c0 -11 3 -14 6 -6 3 7 2 16 -1 19 -3 4 -6 -2 -5 -13z"/>
</g>
</svg>
